# xmcd
#
# Track frame offsets: 
#        150
#        12348
#        27963
#        42021
#        53775
#        67850
#        82247
#        97024
#        111989
#        127246
#        139430
#        155813
#        167773
#        188496
#        209087
#        224458
#        244231
#        261816
#
# Disc length: 3714 seconds
#
# Revision: 0
# Processed by: cddbd v1.4PL0 Copyright (c) Steve Scherf et al.
# Submitted via: ExactAudioCopy v0.90b4
#
DISCID=140e8012
DTITLE=Ottar Big Hand Johansen - Mitt liv er country music
DYEAR=2001
DGENRE=Country
TTITLE0=Mitt liv er country music
TTITLE1=Ta deg tid med jenter
TTITLE2=På'n igjen
TTITLE3=Lettere enn alt jeg kunne si
TTITLE4=I morgen tidlig
TTITLE5=Jeg snudde meg bort
TTITLE6=Du ber om det selv
TTITLE7=Morgenregnet
TTITLE8=De beste timene
TTITLE9=Herr A, Herr B, Herr C
TTITLE10=Ol' man river
TTITLE11=Pocketbokdikter
TTITLE12=Tenk litt på barna
TTITLE13=Fanden
TTITLE14=Ta det rolig
TTITLE15=Din siste dans
TTITLE16=Farvel Marie
TTITLE17=Takk for at du er en venn
EXTD=
EXTT0=
EXTT1=
EXTT2=
EXTT3=
EXTT4=
EXTT5=
EXTT6=
EXTT7=
EXTT8=
EXTT9=
EXTT10=
EXTT11=
EXTT12=
EXTT13=
EXTT14=
EXTT15=
EXTT16=
EXTT17=
PLAYORDER=
